<!-- icon666.com - MILLIONS vector ICONS FREE --><svg id="Capa_1" enable-background="new 0 0 511 511" viewBox="0 0 511 511" xmlns="http://www.w3.org/2000/svg"><path d="m359.5 127.481c0-39.765 72-120 72-120s72 80.235 72 120-32.236 72-72 72-72-32.235-72-72z" fill="#8de2e3"></path><path d="m463.5 183.481c-39.765 0-72-32.236-72-72 0-24.975 28.401-65.911 49.528-92.91-5.778-6.911-9.528-11.09-9.528-11.09s-72 80.235-72 120c0 39.764 32.235 72 72 72 18.039 0 34.514-6.649 47.148-17.61-4.886 1.047-9.95 1.61-15.148 1.61z" fill="#41cfd1"></path><path d="m151.5 127.481c0-39.765-72-120-72-120s-72 80.235-72 120 32.235 72 72 72 72-32.235 72-72z" fill="#8de2e3"></path><path d="m111.5 183.481c-39.765 0-72-32.236-72-72 0-24.975 28.401-65.911 49.528-92.91-5.779-6.91-9.528-11.09-9.528-11.09s-72 80.235-72 120c0 39.764 32.235 72 72 72 18.039 0 34.514-6.649 47.148-17.61-4.886 1.047-9.95 1.61-15.148 1.61z" fill="#41cfd1"></path><path d="m111.5 359.481c0-79.529 144-248 144-248s144 168.471 144 248-64.471 144-144 144-144-64.471-144-144z" fill="#8de2e3"></path><path d="m311.5 471.481c-79.529 0-144-64.471-144-144 0-51.72 60.899-141.052 103.49-197.205-9.515-11.804-15.49-18.795-15.49-18.795s-144 168.471-144 248 64.471 144 144 144c37.644 0 71.909-14.451 97.566-38.1-13.162 3.962-27.113 6.1-41.566 6.1z" fill="#41cfd1"></path><path d="m473.589 48.191c-18.029-25.07-35.761-44.887-36.507-45.719-2.936-3.271-8.228-3.271-11.164 0-.746.832-18.478 20.649-36.507 45.719-24.824 34.518-37.411 61.196-37.411 79.29 0 43.836 35.664 79.5 79.5 79.5s79.5-35.664 79.5-79.5c0-18.094-12.587-44.772-37.411-79.29zm-42.089 143.79c-35.565 0-64.5-28.935-64.5-64.5 0-27.677 42.371-82.806 64.501-108.616 22.13 25.802 64.499 80.919 64.499 108.616 0 35.566-28.935 64.5-64.5 64.5z"></path><path d="m159 127.481c0-18.095-12.587-44.772-37.411-79.291-18.029-25.069-35.761-44.886-36.507-45.718-2.936-3.271-8.228-3.271-11.164 0-.746.832-18.478 20.649-36.507 45.719-24.824 34.518-37.411 61.196-37.411 79.29 0 43.836 35.664 79.5 79.5 79.5s79.5-35.663 79.5-79.5zm-79.5 64.5c-35.565 0-64.5-28.935-64.5-64.5 0-27.677 42.371-82.806 64.501-108.616 22.13 25.802 64.499 80.919 64.499 108.616 0 35.566-28.935 64.5-64.5 64.5z"></path><path d="m343.49 229.447c-3.496 2.222-4.529 6.857-2.307 10.353 33.245 52.312 50.817 93.697 50.817 119.681 0 75.266-61.234 136.5-136.5 136.5s-136.5-61.233-136.5-136.5c0-67.046 109.974-204.202 136.503-236.308 11.533 13.941 38.82 47.694 65.828 86.75 2.356 3.406 7.027 4.26 10.435 1.903 3.407-2.356 4.259-7.028 1.903-10.435-35.804-51.776-72.105-94.36-72.468-94.784-2.948-3.449-8.454-3.449-11.402 0-5.953 6.966-145.799 171.513-145.799 252.874 0 83.538 67.962 151.5 151.5 151.5s151.5-67.962 151.5-151.5c0-29.25-17.885-72.224-53.157-127.727-2.222-3.494-6.855-4.529-10.353-2.307z"></path><path d="m316.803 290.178c-2.929-2.929-7.678-2.929-10.606 0l-112 112c-2.929 2.929-2.929 7.678 0 10.606 1.464 1.464 3.384 2.197 5.303 2.197s3.839-.732 5.303-2.197l112-112c2.929-2.928 2.929-7.677 0-10.606z"></path><path d="m215.5 342.981c12.958 0 23.5-10.542 23.5-23.5s-10.542-23.5-23.5-23.5-23.5 10.542-23.5 23.5 10.542 23.5 23.5 23.5zm0-32c4.687 0 8.5 3.813 8.5 8.5s-3.813 8.5-8.5 8.5-8.5-3.813-8.5-8.5 3.813-8.5 8.5-8.5z"></path><path d="m295.5 359.981c-12.958 0-23.5 10.542-23.5 23.5s10.542 23.5 23.5 23.5 23.5-10.542 23.5-23.5-10.542-23.5-23.5-23.5zm0 32c-4.687 0-8.5-3.813-8.5-8.5s3.813-8.5 8.5-8.5 8.5 3.813 8.5 8.5-3.813 8.5-8.5 8.5z"></path></svg>